 <svg  version="1.0" xmlns="http://www.w3.org/2000/svg"  width="900.000000pt" height="504.000000pt" viewBox="0 0 900.000000 504.000000"  preserveAspectRatio="xMidYMid meet">  <g transform="translate(0.000000,504.000000) scale(0.100000,-0.100000)" fill="#ff0000" stroke="none"> <path d="M4592 4438 l3 -223 213 -5 212 -5 36 -40 c20 -22 52 -60 72 -85 21 -25 77 -93 127 -151 49 -58 108 -127 130 -154 22 -27 45 -53 50 -59 6 -6 28 -33 50 -61 22 -27 47 -56 55 -65 9 -8 42 -49 75 -90 33 -41 71 -85 84 -99 13 -15 47 -55 76 -91 30 -36 83 -101 120 -145 37 -44 72 -87 79 -95 26 -32 159 -186 183 -213 29 -32 26 -58 -12 -99 -14 -15 -25 -30 -25 -34 0 -3 -13 -23 -30 -44 -16 -21 -30 -42 -30 -47 0 -5 -13 -23 -29 -41 l-30 -32 -228 0 -228 0 2 -217 1 -218 30 -7 c17 -5 268 -7 558 -6 l528 3 187 280 c103 154 191 285 196 290 5 6 20 28 33 50 13 22 28 45 33 50 4 6 31 46 60 90 28 44 54 82 57 85 3 3 17 23 30 45 13 22 27 42 30 45 3 3 17 23 30 45 13 22 26 42 29 45 4 3 24 32 46 65 22 33 42 62 45 65 4 3 17 23 30 45 13 22 28 45 32 50 5 6 56 82 115 170 58 88 248 372 421 630 173 259 317 476 319 483 4 9 -93 12 -466 12 l-470 0 -12 -22 c-7 -13 -55 -88 -108 -168 -53 -80 -98 -149 -101 -155 -7 -14 -43 -69 -50 -75 -9 -8 -30 -44 -40 -67 -5 -13 -14 -23 -20 -23 -5 0 -10 -6 -10 -13 0 -7 -27 -52 -60 -100 -33 -49 -60 -90 -60 -92 0 -2 -34 -54 -75 -116 -41 -61 -75 -113 -75 -115 0 -5 -42 -66 -51 -74 -3 -3 -9 -12 -13 -20 -20 -42 -82 -134 -100 -150 -16 -12 -21 -10 -50 21 -18 19 -57 66 -86 104 -30 39 -57 72 -60 75 -4 3 -60 73 -126 155 -384 481 -620 774 -647 803 l-31 32 -528 0 -528 0 2 -222z"/> <path d="M2080 4604 c-80 -6 -158 -17 -173 -23 -16 -6 -43 -11 -60 -11 -18 0 -52 -6 -77 -14 -25 -8 -72 -22 -105 -32 -33 -9 -72 -23 -87 -30 -14 -8 -33 -14 -41 -14 -9 0 -28 -6 -44 -14 -15 -8 -75 -38 -133 -66 -111 -54 -120 -59 -188 -102 -24 -16 -47 -28 -53 -28 -5 0 -9 -4 -9 -8 0 -4 -19 -20 -42 -35 -44 -27 -60 -40 -158 -127 -92 -81 -124 -112 -186 -185 -64 -74 -184 -230 -184 -239 0 -3 -12 -24 -27 -48 -45 -69 -50 -79 -88 -154 -19 -38 -35 -75 -35 -81 0 -6 -7 -16 -15 -23 -8 -7 -15 -20 -15 -29 0 -9 -7 -29 -15 -45 -8 -15 -15 -33 -15 -38 0 -6 -6 -24 -13 -41 -26 -61 -63 -202 -77 -297 -6 -36 -15 -79 -20 -96 -18 -53 -14 -522 5 -622 35 -189 64 -304 91 -370 8 -18 14 -41 14 -52 0 -10 4 -21 9 -25 5 -3 13 -19 16 -36 19 -87 191 -423 255 -496 6 -7 24 -33 40 -57 35 -51 232 -254 300 -308 64 -52 171 -127 196 -137 11 -5 51 -28 88 -50 36 -23 69 -41 73 -41 3 0 34 -13 67 -29 34 -16 70 -31 81 -34 11 -3 45 -15 75 -26 64 -25 157 -48 250 -62 36 -5 75 -14 88 -19 15 -7 994 -10 2797 -10 2709 0 2775 0 2806 19 50 31 69 71 69 152 l0 70 -450 457 c-593 603 -791 799 -820 811 -14 6 -32 15 -40 19 -51 29 -85 42 -105 42 -13 0 -36 5 -52 11 -20 9 -555 12 -1988 13 l-1960 1 -80 40 c-94 47 -185 133 -229 216 -28 53 -66 188 -66 232 0 38 37 170 60 217 25 49 155 190 177 190 7 0 13 4 13 8 0 10 72 42 125 56 25 6 536 12 1400 15 1295 6 1361 7 1387 24 54 37 78 81 78 144 0 40 -6 67 -19 87 -39 59 -1215 1235 -1258 1258 -24 13 -43 26 -43 30 0 5 -10 8 -23 8 -12 0 -32 6 -42 14 -11 8 -50 17 -85 20 -120 13 -1287 12 -1440 0z"/> </g> </svg> 